<svg width="450" height="563" viewBox="0 0 450 563" fill="none" xmlns="http://www.w3.org/2000/svg">
<g clip-path="url(#clip0_490_31)">
<rect width="450" height="563" fill="white"/>
<rect x="38" y="-12" width="450" height="563" fill="white"/>
<path d="M450 -3V562.787H274.163C273.559 562.857 273.003 562.858 272.5 562.787H274.163C287.996 561.198 327.219 523.707 339.5 482C355.522 427.588 345.056 403.581 290.581 253.443C247.001 133.333 377.1 13.6909 377.1 -11.5L377.1 -3H450Z" fill="#EC6A52"/>
<path d="M450 578V1.34991L417.814 -31L408.796 1.34991C408.796 27.0245 282.055 143.073 336.659 263.744C401.088 406.127 389.76 455.789 379.741 511.246C371.725 555.612 336.659 578 350.311 578H450Z" fill="#F8B042"/>
</g>
<defs>
<clipPath id="clip0_490_31">
<rect width="450" height="563" fill="white"/>
</clipPath>
</defs>
</svg>
